<?xml version="1.0" encoding="UTF-8" standalone="no"?>
<!DOCTYPE svg PUBLIC "-//W3C//DTD SVG 1.1//EN" "http://www.w3.org/Graphics/SVG/1.1/DTD/svg11.dtd">
<svg version="1.1" xmlns="http://www.w3.org/2000/svg" xmlns:xlink="http://www.w3.org/1999/xlink" preserveAspectRatio="xMidYMid meet" viewBox="0 0 640 640" width="640" height="640"><defs><path d="M118.46 237.03C118.46 144.07 195 68.6 289.28 68.6C383.55 68.6 460.1 144.07 460.1 237.03C460.1 329.99 383.55 405.46 289.28 405.46C195 405.46 118.46 329.99 118.46 237.03Z" id="hpMoi2uCq"></path><path d="M253.78 116.08C253.71 118.14 253.94 120.2 254.46 122.2C254.46 122.2 254.62 122.82 254.95 124.06C255.02 124.34 256.05 126.49 257.63 127.56C257.74 127.64 258.29 127.96 259.28 128.51C260.38 129.14 261.53 129.67 262.73 130.1C262.95 130.19 263.52 130.39 264.42 130.72C266.59 130.99 267.94 131.15 268.48 131.22C270.14 131.42 271.75 131.91 273.24 132.66C273.55 132.82 273.35 132.72 273.95 133.02C274.5 133.3 275.01 133.66 275.46 134.09C275.89 134.49 275.77 134.38 276.02 134.61C277.08 135.62 278.02 136.75 278.81 137.98C279.18 138.56 279.63 139.25 280.13 140.03C280.49 140.59 280.75 141.2 280.92 141.85C281.17 142.81 281.24 143.06 281.38 143.6C281.9 145.58 281.81 147.67 281.14 149.6C280.84 150.45 280.73 150.76 280.37 151.79C279.9 153.15 279.2 154.42 278.32 155.56C277.69 156.38 276.32 158.15 275.49 159.22C275.36 159.38 275.11 159.31 275.08 159.12C275.04 158.78 274.93 157.93 274.75 156.58C274.64 155.72 274.56 155.18 274.54 154.96C274.37 153.72 273.87 152.55 273.09 151.57C272.78 151.19 272.58 150.94 272.15 150.41C272.15 150.41 270.84 148.97 270.84 148.97C270.25 148.4 269.46 147.81 268.48 147.2C267.44 146.56 266.16 146.1 264.64 145.85C263.98 145.73 263.3 145.77 262.66 145.95C261.22 146.37 258.9 147.03 257.71 147.36C256.22 147.79 254.66 147.94 253.12 147.81C252.19 147.73 251.28 147.53 250.38 147.2C247.74 146.25 247.12 143.39 246.9 143.25C246.5 143 246.17 141.79 245.11 137.85C244.85 136.85 244.7 135.4 244.68 133.48C244.68 133.48 244.98 127.74 244.98 127.74C245.12 126.59 245.1 126.74 245.21 125.77C245.21 125.77 246.5 118.3 246.5 118.3C246.88 116.62 247.85 112.43 249.39 105.72L255.46 85.05C254.83 95.56 254.45 102.13 254.29 104.76C254.29 104.76 253.85 114.14 253.85 114.14C253.82 115.15 253.83 114.75 253.78 116.08Z" id="b1J2QNjauG"></path><path d="M322.6 175.94C322.6 191.09 335.19 203.39 350.7 203.39C366.21 203.39 378.81 191.09 378.81 175.94C378.81 160.79 366.21 148.49 350.7 148.49C335.19 148.49 322.6 160.79 322.6 175.94Z" id="btz27OLci"></path><path d="M345.92 259.41C343.01 272.73 341.9 286.38 342.62 299.99C342.73 302.22 343.03 307.8 343.5 316.73L351.99 378.82L308.2 294.51L246.11 388.63L294.48 221.31L220.62 180.78L365.72 214.12C361.21 222.23 358.4 227.3 357.27 229.32C352.04 238.74 348.21 248.88 345.92 259.41C345.04 263.42 346.61 256.23 345.92 259.41Z" id="f1NoIB5vI6"></path><path d="M271.49 166.71C272.38 164.64 272.84 162.4 272.85 160.14C272.84 162.42 272.84 161.81 272.86 158.31C272.95 153.87 268.19 148.6 262.23 148.93C261.09 148.99 259.99 149.28 258.95 149.79C254.58 151.95 249.31 150.92 246.08 147.28C245.11 146.2 244.46 145.14 244.12 144.11C242.77 140.04 242.89 139 242.28 135.38C241.15 128.81 244.51 112.71 252.35 87.09L241.82 109.38L229.36 133.88C222.87 148.55 223.24 160.87 230.47 170.83C236.19 178.72 244.55 181.75 255.53 179.9C259.89 179.17 263.88 177.02 266.89 173.78C267.48 173.15 266.65 174.04 267.75 172.85C269.13 171.37 270.24 169.65 271.03 167.79C271.39 166.94 271.16 167.49 271.49 166.71Z" id="c1IwhlcjZ"></path></defs><g><g><g><use xlink:href="#hpMoi2uCq" opacity="1" fill="#4bff1e" fill-opacity="0.1"></use><g><use xlink:href="#hpMoi2uCq" opacity="1" fill-opacity="0" stroke="#1e78ff" stroke-width="5" stroke-opacity="1"></use></g></g><g><use xlink:href="#b1J2QNjauG" opacity="1" fill="#ff401e" fill-opacity="1"></use><g><use xlink:href="#b1J2QNjauG" opacity="1" fill-opacity="0" stroke="#ff401e" stroke-width="1" stroke-opacity="1"></use></g></g><g><use xlink:href="#btz27OLci" opacity="1" fill="#1e78ff" fill-opacity="1"></use><g><use xlink:href="#btz27OLci" opacity="1" fill-opacity="0" stroke="#1e78ff" stroke-width="1" stroke-opacity="1"></use></g></g><g><use xlink:href="#f1NoIB5vI6" opacity="1" fill="#1e78ff" fill-opacity="1"></use><g><use xlink:href="#f1NoIB5vI6" opacity="1" fill-opacity="0" stroke="#1e78ff" stroke-width="1" stroke-opacity="1"></use></g></g><g><use xlink:href="#c1IwhlcjZ" opacity="1" fill="#ff401e" fill-opacity="1"></use><g><use xlink:href="#c1IwhlcjZ" opacity="1" fill-opacity="0" stroke="#ff401e" stroke-width="1" stroke-opacity="1"></use></g></g></g></g></svg>